<?xml version="1.0" encoding="utf-8"?>
<!-- Generator: Adobe Illustrator 23.0.1, SVG Export Plug-In . SVG Version: 6.00 Build 0)  -->
<svg version="1.1" id="Capa_1" xmlns="http://www.w3.org/2000/svg" xmlns:xlink="http://www.w3.org/1999/xlink" x="0px" y="0px"
	 viewBox="0 0 442 140" style="enable-background:new 0 0 442 140;" xml:space="preserve">
<style type="text/css">
	.st0{clip-path:url(#SVGID_2_);fill:#6BB814;}
	.st1{fill:#6BB814;}
	.st2{clip-path:url(#SVGID_4_);fill:#6BB814;}
</style>
<g>
	<defs>
		<rect id="SVGID_1_" y="-0.2" width="441.5" height="140.2"/>
	</defs>
	<clipPath id="SVGID_2_">
		<use xlink:href="#SVGID_1_"  style="overflow:visible;"/>
	</clipPath>
	<path class="st0" d="M176.1,37c-2.9-0.5-6.2-1-9.8-1C149.4,36,142,48.5,142,48.5l-2.2-10.8h-30.7V138h34.1V88.2
		c0-14.7,5.6-22.1,16.9-22.1c3.2,0,6.5,0.4,9.5,1L176.1,37z"/>
	<path class="st0" d="M393.6,67.5c0-2.6,2.8-3.8,7.8-3.8c12.4,0,28.1,6.6,28.1,6.6l8.2-28.7c0,0-16.1-6-37.3-6
		c-21.3,0-40.6,10.8-40.6,31.7c0,30.9,47.6,31.7,47.6,40.2c0,2.8-4.2,4.2-8.6,4.2c-15.3,0-30.3-9.8-30.3-9.8l-11.8,26.5
		c0,0,17.7,11.6,41.6,11.6c23.1,0,43.4-12,43.4-33.7C441.5,73.6,393.6,75.2,393.6,67.5"/>
	<path class="st0" d="M37.9,90.5c1.1-0.3,2.2-0.6,3.3-0.8c6.5-1.3,13.5-2.1,20.1-1.8c3.4,0.2,6.8,0.4,10,1.4v0c-1.4,0-2.7,0-4.2,0
		c-5.2,0-10.4,0.1-15.5,1c-4.6,0.8-9.3,2-13.7,3.7V90.5z M37.9,86.6v-8.5c0-13.1,9.8-24.4,21.9-24.4c5.2,0,9.8,1.8,13.4,4.8l26.5-26
		c-10.5-9.4-24.4-15.2-39.9-15.2C25.3,17.3,0,44.8,0,79.1V138h37.9V98.1c0.9,3.4,2.4,6.4,5.1,8.8c5.6,4.9,14.6,6.3,22,5.2
		c8.2-1.2,16.6-5.1,23.4-9.8c4.2-2.9,7.7-6.4,11-10.2c0.4-0.5,0.8-0.9,1.2-1.4l0.1-0.1c-0.3-0.3-0.6-0.6-0.9-0.9
		c-3.4-3.3-6.9-6.7-10.8-9.4c-4.1-2.9-8.4-5.5-13.2-7.1c-5.2-1.7-11-2.7-16.6-2c-5.3,0.7-10.9,2.1-15,5.8
		C41.2,79.5,39.1,83,37.9,86.6"/>
	<path class="st0" d="M308.3,87.7c0,12.1-8.9,21.9-19.9,21.9c-11,0-19.9-9.8-19.9-21.9c0-12.1,8.9-21.9,19.9-21.9
		C299.3,65.8,308.3,75.6,308.3,87.7 M342.3,138l-0.1-100.4h-30.7l-0.9,6.6c-7.7-5.1-16.7-8.1-26.5-8.1c-27.3,0-49.4,23.1-49.4,51.6
		c0,28.5,22.1,51.6,49.4,51.6c9.9,0,19.1-3,26.8-8.3l0.7,7H342.3z"/>
</g>
<rect x="186.9" y="37.7" class="st1" width="34.5" height="100.3"/>
<g>
	<defs>
		<rect id="SVGID_3_" y="-0.2" width="441.5" height="140.2"/>
	</defs>
	<clipPath id="SVGID_4_">
		<use xlink:href="#SVGID_3_"  style="overflow:visible;"/>
	</clipPath>
	<path class="st2" d="M213.5,28.5l21.1-22.1c-6.7-5.1-14.3-7.3-23-6.5c-7.9,0.7-12.8,4.1-14.9,10.4l-6.3,18.3H213.5z"/>
</g>
</svg>
